<svg xmlns="http://www.w3.org/2000/svg" width="1228" height="367" viewBox="0 0 1228 367" fill="none">
  <rect width="1228" height="367" fill="#ffffff"/>
  <g>
    <path d="M23.5 21.5C23.5 19.567 25.567 18.345 27.233 19.291L51.417 33.018C53.11 33.979 53.11 36.421 51.417 37.382L27.233 51.109C25.567 52.055 23.5 50.833 23.5 48.9V21.5Z" fill="#34A853"/>
    <path d="M27.1 19.198 39.738 31.836 24.226 47.348A2.33 2.33 0 0 1 23.5 45.798V20.748c0-.57.142-1.106.392-1.55.77-.003 2.32-.01 3.208 0Z" fill="#4285F4"/>
    <path d="m39.738 31.836 11.679 6.629a1.87 1.87 0 0 1 0 3.272l-11.68 6.629-6.413-6.413 6.414-10.117Z" fill="#FBBC04"/>
    <path d="m24.226 47.348 15.512-15.512 6.414 6.414-18.92 10.74c-.628.357-1.37.354-2.006.004.25-.444.391-.98.391-1.646Z" fill="#EA4335"/>
  </g>
  <text x="57" y="45" fill="#3C4043" font-family="Arial, Helvetica, sans-serif" font-size="16" font-weight="600">Google Play</text>
  <text x="172" y="45" fill="#5F6368" font-family="Arial, Helvetica, sans-serif" font-size="14">Games</text>
  <text x="237" y="45" fill="#01875F" font-family="Arial, Helvetica, sans-serif" font-size="14" font-weight="600">Apps</text>
  <text x="289" y="45" fill="#5F6368" font-family="Arial, Helvetica, sans-serif" font-size="14">Kids</text>
  <rect x="238" y="62" width="24" height="2" rx="1" fill="#01875F"/>

  <text x="118" y="141" fill="#202124" font-family="Arial, Helvetica, sans-serif" font-size="52" font-weight="500">BabyBite: Baby Meal Planner</text>
  <text x="151" y="183" fill="#01875F" font-family="Arial, Helvetica, sans-serif" font-size="14" font-weight="500">Davis Kiprotich</text>

  <text x="182" y="224" fill="#3C4043" font-family="Arial, Helvetica, sans-serif" font-size="18" font-weight="600">5+</text>
  <text x="158" y="241" fill="#5F6368" font-family="Arial, Helvetica, sans-serif" font-size="12">Downloads</text>
  <line x1="228" y1="219" x2="228" y2="242" stroke="#DADCE0"/>
  <rect x="274" y="213" width="14" height="14" rx="1" fill="none" stroke="#5F6368"/>
  <text x="276.5" y="224.5" fill="#5F6368" font-family="Arial, Helvetica, sans-serif" font-size="11" font-weight="700">3+</text>
  <text x="245" y="241" fill="#5F6368" font-family="Arial, Helvetica, sans-serif" font-size="12">Rated for 3+</text>
  <circle cx="309" cy="238" r="3.5" fill="none" stroke="#5F6368" stroke-width="1"/>
  <text x="307.6" y="240.8" fill="#5F6368" font-family="Arial, Helvetica, sans-serif" font-size="5.5" font-weight="700">i</text>

  <rect x="151" y="260" width="159" height="35" rx="6" fill="#01875F"/>
  <text x="210" y="282" fill="#ffffff" font-family="Arial, Helvetica, sans-serif" font-size="16" font-weight="700">Install</text>

  <g transform="translate(330 267)">
    <circle cx="8" cy="10" r="2.5" fill="#01875F"/>
    <circle cx="17" cy="6" r="2.5" fill="#01875F"/>
    <circle cx="17" cy="15" r="2.5" fill="#01875F"/>
    <path d="M10.2 8.9 14.7 6.9M10.2 11.1l4.5 2" stroke="#01875F" stroke-width="1.7" stroke-linecap="round"/>
  </g>
  <text x="354" y="282" fill="#01875F" font-family="Arial, Helvetica, sans-serif" font-size="14" font-weight="500">Share</text>

  <g transform="translate(408 263)">
    <path d="M6 6h8v14l-4-2.4L6 20V6Z" fill="none" stroke="#01875F" stroke-width="1.7" stroke-linejoin="round"/>
  </g>
  <rect x="399" y="260" width="118" height="32" rx="4" fill="#F1F3F4"/>
  <text x="431" y="282" fill="#01875F" font-family="Arial, Helvetica, sans-serif" font-size="14" font-weight="500">Add to wishlist</text>

  <g transform="translate(151 312)">
    <rect x="0.8" y="2.5" width="12.4" height="9" rx="1.8" fill="none" stroke="#5F6368" stroke-width="1.6"/>
    <rect x="4.6" y="12.8" width="4.8" height="1.8" rx="0.9" fill="#5F6368"/>
  </g>
  <text x="177" y="325" fill="#5F6368" font-family="Arial, Helvetica, sans-serif" font-size="14">This app is available for all of your devices</text>

  <rect x="996" y="88" width="190" height="193" rx="40" fill="#108653"/>
  <rect x="1011" y="105" width="160" height="160" rx="28" fill="#0F8A54"/>
  <rect x="1011" y="105" width="160" height="160" rx="28" fill="url(#gloss)" fill-opacity=".55"/>
  <g transform="translate(1054 143)">
    <ellipse cx="37" cy="25" rx="37" ry="10" stroke="#ffffff" stroke-width="4" fill="none"/>
    <path d="M73 8c7-7 14-8 19-7-1 8-4 13-8 17-3 3-7 4-11 4" stroke="#ffffff" stroke-width="4" stroke-linecap="round" stroke-linejoin="round"/>
    <path d="M30 29c4 0 7 4 7 9 0 4-3 8-7 8s-7-4-7-8c0-5 3-9 7-9Zm28 0c4 0 7 4 7 9 0 4-3 8-7 8s-7-4-7-8c0-5 3-9 7-9Z" fill="#ffffff"/>
    <path d="M28 55c8 8 24 8 32 0" stroke="#ffffff" stroke-width="4" stroke-linecap="round"/>
  </g>

  <defs>
    <linearGradient id="gloss" x1="1011" y1="105" x2="1171" y2="265" gradientUnits="userSpaceOnUse">
      <stop stop-color="#0A6F44" stop-opacity=".15"/>
      <stop offset="1" stop-color="#054A2E" stop-opacity=".08"/>
    </linearGradient>
  </defs>
</svg>
