<svg xmlns="http://www.w3.org/2000/svg" width="1240" height="620" viewBox="0 0 1240 620" fill="none">
  <rect width="1240" height="620" fill="#ffffff"/>
  <g>
    <path d="M20 20.5C20 18.567 22.067 17.345 23.733 18.291L47.917 32.018C49.61 32.979 49.61 35.421 47.917 36.382L23.733 50.109C22.067 51.055 20 49.833 20 47.9V20.5Z" fill="#34A853"/>
    <path d="M23.6 18.198 36.238 30.836 20.726 46.348A2.33 2.33 0 0 1 20 44.798V19.748c0-.57.142-1.106.392-1.55.77-.003 2.32-.01 3.208 0Z" fill="#4285F4"/>
    <path d="m36.238 30.836 11.679 6.629a1.87 1.87 0 0 1 0 3.272l-11.68 6.629-6.413-6.413 6.414-10.117Z" fill="#FBBC04"/>
    <path d="m20.726 46.348 15.512-15.512 6.414 6.414-18.92 10.74c-.628.357-1.37.354-2.006.004.25-.444.391-.98.391-1.646Z" fill="#EA4335"/>
  </g>
  <text x="56" y="39" fill="#3C4043" font-family="Arial, Helvetica, sans-serif" font-size="16" font-weight="600">Google Play</text>
  <text x="170" y="39" fill="#5F6368" font-family="Arial, Helvetica, sans-serif" font-size="14">Games</text>
  <text x="230" y="39" fill="#01875F" font-family="Arial, Helvetica, sans-serif" font-size="14" font-weight="600">Apps</text>
  <text x="280" y="39" fill="#5F6368" font-family="Arial, Helvetica, sans-serif" font-size="14">Kids</text>
  <rect x="229" y="55" width="24" height="2" rx="1" fill="#01875F"/>

  <text x="190" y="135" fill="#202124" font-family="Arial, Helvetica, sans-serif" font-size="52" font-weight="500">PDF Imager</text>
  <text x="189" y="176" fill="#01875F" font-family="Arial, Helvetica, sans-serif" font-size="14" font-weight="500">Davis Kiprotich</text>

  <text x="213" y="216" fill="#3C4043" font-family="Arial, Helvetica, sans-serif" font-size="18" font-weight="600">0+</text>
  <text x="194" y="233" fill="#5F6368" font-family="Arial, Helvetica, sans-serif" font-size="12">Downloads</text>
  <line x1="262" y1="211" x2="262" y2="235" stroke="#DADCE0"/>
  <rect x="305" y="204" width="14" height="14" rx="1" fill="none" stroke="#5F6368"/>
  <text x="307.5" y="215.5" fill="#5F6368" font-family="Arial, Helvetica, sans-serif" font-size="11" font-weight="700">3+</text>
  <text x="278" y="234" fill="#5F6368" font-family="Arial, Helvetica, sans-serif" font-size="12">Rated for 3+</text>
  <circle cx="339" cy="231" r="3.5" fill="none" stroke="#5F6368" stroke-width="1"/>
  <text x="337.5" y="233.8" fill="#5F6368" font-family="Arial, Helvetica, sans-serif" font-size="5.5" font-weight="700">i</text>

  <rect x="190" y="260" width="149" height="31" rx="6" fill="#01875F"/>
  <text x="246" y="280" fill="#ffffff" font-family="Arial, Helvetica, sans-serif" font-size="16" font-weight="700">Install</text>

  <g transform="translate(359 266)">
    <circle cx="8" cy="10" r="2.5" fill="#01875F"/>
    <circle cx="17" cy="6" r="2.5" fill="#01875F"/>
    <circle cx="17" cy="15" r="2.5" fill="#01875F"/>
    <path d="M10.2 8.9 14.7 6.9M10.2 11.1l4.5 2" stroke="#01875F" stroke-width="1.7" stroke-linecap="round"/>
  </g>
  <text x="383" y="280" fill="#01875F" font-family="Arial, Helvetica, sans-serif" font-size="14" font-weight="500">Share</text>

  <g transform="translate(429 262)">
    <path d="M6 6h8v14l-4-2.4L6 20V6Z" fill="none" stroke="#01875F" stroke-width="1.7" stroke-linejoin="round"/>
  </g>
  <text x="452" y="280" fill="#01875F" font-family="Arial, Helvetica, sans-serif" font-size="14" font-weight="500">Add to wishlist</text>

  <g transform="translate(190 306)">
    <rect x="0.8" y="2.5" width="12.4" height="9" rx="1.8" fill="none" stroke="#5F6368" stroke-width="1.6"/>
    <rect x="4.6" y="12.8" width="4.8" height="1.8" rx="0.9" fill="#5F6368"/>
  </g>
  <text x="215" y="319" fill="#5F6368" font-family="Arial, Helvetica, sans-serif" font-size="14">This app is available for all of your devices</text>

  <g filter="url(#cardShadow)">
    <rect x="981" y="91" width="184" height="182" rx="36" fill="#ffffff" stroke="#E7E9EE"/>
    <rect x="1029" y="128" width="88" height="108" rx="12" fill="url(#paper)" stroke="#D7DCEE"/>
    <path d="M1100 128h8c5 0 9 4 9 9v7l-17-16Z" fill="#ECF0FA"/>
    <text x="1046" y="175" fill="#2F35D5" font-family="Arial, Helvetica, sans-serif" font-size="24" font-weight="700">PDF</text>
    <path d="M1049 212h47" stroke="#2F35D5" stroke-width="4" stroke-linecap="round"/>
    <path d="m1054 209 9-16 9 12 9-18 14 22" stroke="#2F35D5" stroke-width="4" stroke-linecap="round" stroke-linejoin="round" fill="none"/>
  </g>

  <g>
    <rect x="190" y="383" width="222" height="246" rx="8" fill="#F6F7FB" stroke="#E8EAF1"/>
    <rect x="255" y="399" width="92" height="190" rx="22" fill="#E9ECF8" stroke="#BFC6E1"/>
    <rect x="263" y="407" width="76" height="174" rx="18" fill="#FDFEFF"/>
    <rect x="285" y="415" width="31" height="5" rx="2.5" fill="#C6CBE0"/>
    <rect x="278" y="432" width="45" height="65" rx="8" fill="url(#screenBlue)"/>
    <rect x="275" y="504" width="49" height="34" rx="7" fill="#F1F3FA" stroke="#DADFF0"/>
    <rect x="275" y="545" width="49" height="20" rx="7" fill="#F1F3FA" stroke="#DADFF0"/>
    <g transform="translate(286 446)">
      <rect width="28" height="19" rx="3" fill="#FFFFFF" fill-opacity=".18"/>
      <path d="M7 14h15M11 6l5 4-5 4" stroke="#ffffff" stroke-width="2" stroke-linecap="round"/>
    </g>
    <text x="285" y="487" fill="#FFFFFF" font-family="Arial, Helvetica, sans-serif" font-size="9" font-weight="700">PDF to</text>
    <text x="285" y="498" fill="#FFFFFF" font-family="Arial, Helvetica, sans-serif" font-size="10" font-weight="700">Word</text>
    <text x="287" y="522" fill="#6672A7" font-family="Arial, Helvetica, sans-serif" font-size="8">PDF</text>
    <text x="303" y="532" fill="#6672A7" font-family="Arial, Helvetica, sans-serif" font-size="7">to</text>
    <text x="285" y="556" fill="#6672A7" font-family="Arial, Helvetica, sans-serif" font-size="8">More tools</text>
  </g>

  <g>
    <rect x="423" y="383" width="225" height="246" rx="8" fill="#F6F7FB" stroke="#E8EAF1"/>
    <rect x="487" y="399" width="93" height="190" rx="22" fill="#E9ECF8" stroke="#BFC6E1"/>
    <rect x="495" y="407" width="77" height="174" rx="18" fill="#FDFEFF"/>
    <rect x="520" y="415" width="27" height="5" rx="2.5" fill="#C6CBE0"/>
    <rect x="505" y="432" width="57" height="120" rx="9" fill="url(#screenLilac)"/>
    <rect x="511" y="442" width="45" height="12" rx="6" fill="#FFFFFF" fill-opacity=".85"/>
    <g fill="#FFFFFF" fill-opacity=".85">
      <circle cx="516" cy="468" r="3"/>
      <circle cx="516" cy="487" r="3"/>
      <circle cx="516" cy="506" r="3"/>
      <circle cx="516" cy="525" r="3"/>
    </g>
    <g stroke="#FFFFFF" stroke-width="2" stroke-linecap="round">
      <path d="M524 468h24"/>
      <path d="M524 487h24"/>
      <path d="M524 506h24"/>
      <path d="M524 525h24"/>
    </g>
  </g>

  <g>
    <rect x="659" y="383" width="180" height="246" rx="8" fill="#F6F7FB" stroke="#E8EAF1"/>
    <rect x="721" y="399" width="94" height="190" rx="22" fill="#E9ECF8" stroke="#BFC6E1"/>
    <rect x="729" y="407" width="78" height="174" rx="18" fill="#FDFEFF"/>
    <rect x="755" y="415" width="26" height="5" rx="2.5" fill="#C6CBE0"/>
    <rect x="746" y="435" width="44" height="93" rx="7" fill="#F8F9FE" stroke="#DADFF0"/>
    <text x="750" y="454" fill="#6472AA" font-family="Arial, Helvetica, sans-serif" font-size="8" font-weight="700">Processing File...</text>
    <circle cx="768" cy="507" r="27" stroke="#D9DEF3" stroke-width="8" fill="none"/>
    <path d="M768 480a27 27 0 0 1 18 47" stroke="#5865F2" stroke-width="8" stroke-linecap="round" fill="none"/>
    <text x="754" y="512" fill="#4652C8" font-family="Arial, Helvetica, sans-serif" font-size="18" font-weight="700">68%</text>
    <rect x="748" y="558" width="41" height="10" rx="5" fill="#5865F2"/>
    <text x="756" y="566" fill="#ffffff" font-family="Arial, Helvetica, sans-serif" font-size="6.5" font-weight="700">Convert</text>
  </g>

  <text x="886" y="418" fill="#3C4043" font-family="Arial, Helvetica, sans-serif" font-size="20" font-weight="600">App support</text>
  <path d="m1003 403 6 6 6-6" stroke="#5F6368" stroke-width="2" stroke-linecap="round" stroke-linejoin="round"/>
  <circle cx="836" cy="494" r="23" fill="#ffffff" stroke="#D7DBEA"/>
  <path d="m831 485 9 9-9 9" stroke="#5F6368" stroke-width="2.5" stroke-linecap="round" stroke-linejoin="round"/>

  <defs>
    <linearGradient id="paper" x1="1029" y1="128" x2="1117" y2="236" gradientUnits="userSpaceOnUse">
      <stop stop-color="#FFFFFF"/>
      <stop offset="1" stop-color="#EEF2FD"/>
    </linearGradient>
    <linearGradient id="screenBlue" x1="278" y1="432" x2="323" y2="497" gradientUnits="userSpaceOnUse">
      <stop stop-color="#2E3F9F"/>
      <stop offset="1" stop-color="#8DA4FF"/>
    </linearGradient>
    <linearGradient id="screenLilac" x1="505" y1="432" x2="562" y2="552" gradientUnits="userSpaceOnUse">
      <stop stop-color="#D8D2FF"/>
      <stop offset="1" stop-color="#9DA6FF"/>
    </linearGradient>
    <filter id="cardShadow" x="955" y="84" width="240" height="210" filterUnits="userSpaceOnUse" color-interpolation-filters="sRGB">
      <feFlood flood-opacity="0" result="BackgroundImageFix"/>
      <feColorMatrix in="SourceAlpha" type="matrix" values="0 0 0 0 0 0 0 0 0 0 0 0 0 0 0 0 0 0 127 0" result="hardAlpha"/>
      <feOffset dy="9"/>
      <feGaussianBlur stdDeviation="10"/>
      <feColorMatrix type="matrix" values="0 0 0 0 0.701961 0 0 0 0 0.745098 0 0 0 0 0.87451 0 0 0 0.35 0"/>
      <feBlend mode="normal" in2="BackgroundImageFix" result="effect1_dropShadow_1_1"/>
      <feBlend mode="normal" in="SourceGraphic" in2="effect1_dropShadow_1_1" result="shape"/>
    </filter>
  </defs>
</svg>
